<?xml version="1.0" standalone="no"?>
<!DOCTYPE svg PUBLIC "-//W3C//DTD SVG 1.1//EN" "http://www.w3.org/Graphics/SVG/1.1/DTD/svg11.dtd" >
<svg xmlns="http://www.w3.org/2000/svg">
<metadata></metadata>
<defs>
<font id="arbuckle_remix_nfregular" horiz-adv-x="1024" >
<font-face units-per-em="2048" ascent="1495" descent="-553" />
<missing-glyph horiz-adv-x="409" />
<glyph horiz-adv-x="2048" />
<glyph horiz-adv-x="2048" />
<glyph unicode="&#xd;" horiz-adv-x="2048" />
<glyph unicode=" "  horiz-adv-x="409" />
<glyph unicode="&#x09;" horiz-adv-x="409" />
<glyph unicode="&#xa0;" horiz-adv-x="409" />
<glyph unicode="!" horiz-adv-x="813" d="M37 203q0 45 19.5 76.5t50 51t68.5 29t75 9.5q39 0 84 -15.5t84 -42t64.5 -63.5t25.5 -82q0 -78 -62.5 -122t-148.5 -44q-39 0 -84 13.5t-84 40t-65.5 64.5t-26.5 85zM158 426l100 1004q131 -27 260 -54.5t258 -54.5l-309 -961z" />
<glyph unicode="&#x22;" horiz-adv-x="686" d="M14 1139l183 307l182 -107l-182 -307zM322 1139l182 307l182 -107l-182 -307z" />
<glyph unicode="#" horiz-adv-x="1054" d="M35 307v287h121l34 170h-155v285h213l61 315h289l-63 -315h122l64 315h289l-62 -315h70v-285h-127l-35 -170h162v-287h-217l-62 -305h-288l59 305h-123l-59 -305h-289l61 305h-65zM446 594h121l33 170h-121z" />
<glyph unicode="$" horiz-adv-x="962" d="M43 127l31 403q45 6 76.5 15.5t51 29t30 52t14.5 88.5q0 98 45 186t127 154v241h125v-174q74 27 147.5 38t151.5 11q18 0 38 -1t38 -1q-10 -100 -14.5 -202.5t-14.5 -200.5q-47 -6 -79 -15.5t-51.5 -29t-29.5 -51t-12 -82.5q-8 -63 -19.5 -114.5t-32 -92.5t-50 -76 t-72.5 -65v-240h-125v174q-66 -29 -140.5 -40t-146.5 -11q-23 0 -44 1t-44 3z" />
<glyph unicode="%" horiz-adv-x="2097" d="M31 897q0 94 37.5 178t101 147.5t148.5 100.5t180 37q94 0 178 -37t147.5 -100.5t100.5 -147.5t37 -178t-37 -178t-99.5 -147.5t-147.5 -101.5t-179 -38q-96 0 -180.5 37t-149 100.5t-101 147.5t-36.5 180zM485 0l912 1352h213l-912 -1352h-213zM522 735q0 -49 35 -85 t84 -36q47 0 83 36t36 85q0 47 -36 82t-83 35q-49 0 -84 -35t-35 -82zM1137 467q0 94 37.5 178t101 147.5t148.5 100.5t180 37q94 0 178 -37t147.5 -100.5t100 -147.5t36.5 -178t-36.5 -178t-99 -147.5t-147.5 -101.5t-179 -38q-96 0 -180.5 37t-149 100.5t-101 147.5 t-36.5 180zM1628 305q0 -49 35 -85t84 -36q47 0 83 36t36 85q0 47 -36 82t-83 35q-49 0 -84 -35t-35 -82z" />
<glyph unicode="&#x26;" horiz-adv-x="1413" d="M53 532q0 184 111 330q-16 31 -26.5 67t-10.5 75q0 72 30.5 132t80 103t113 66.5t130.5 23.5q78 0 135.5 -23.5t100.5 -64.5t76.5 -97.5t62.5 -119.5l-274 -43q-16 41 -40 70.5t-61 29.5q-33 0 -55.5 -22.5t-22.5 -54.5q0 -35 32 -60.5t67 -25.5v-201h-31q-8 0 -16.5 1 t-16.5 1q-49 -80 -49 -146q0 -47 17.5 -87t48 -68.5t70.5 -45t85 -16.5q59 4 106.5 32t78.5 83q-33 0 -68 -5t-70 -13l-122 282q74 18 143.5 30.5t138.5 12.5q90 0 169 -24.5t147.5 -68.5t130 -104.5t116.5 -131.5l-225 -222l-47 70q-35 -68 -87 -125t-116.5 -97 t-140.5 -62.5t-156 -22.5q-125 0 -227 46t-175 123t-113 174t-40 199z" />
<glyph unicode="'" horiz-adv-x="397" d="M14 1139l183 307l182 -107l-182 -307z" />
<glyph unicode="(" horiz-adv-x="653" d="M43 649q0 119 28.5 245t89 237.5t153 197.5t221.5 125l102 -104q-88 -106 -142.5 -292t-54.5 -409t55.5 -406.5t141.5 -293.5l-102 -105q-123 37 -215.5 120t-154 193.5t-92 238.5t-30.5 253z" />
<glyph unicode=")" horiz-adv-x="667" d="M18 -51q88 111 142.5 294t54.5 406t-54.5 408.5t-142.5 292.5l103 104q123 -35 215 -118t153.5 -194.5t92 -239.5t30.5 -253q0 -119 -28.5 -244.5t-89 -237.5t-152.5 -197t-221 -124z" />
<glyph unicode="*" horiz-adv-x="675" d="M31 997v195l243 -62l-174 183l168 96l70 -240l70 240l167 -96l-176 -183l246 62v-195l-244 60l174 -180l-167 -97l-70 242l-70 -242l-168 97l172 180z" />
<glyph unicode="+" d="M57 504v287h316v315h286v-315h318v-287h-318v-318h-286v318h-316z" />
<glyph unicode="," horiz-adv-x="524" d="M25 184q0 45 22.5 79t56 57.5t75.5 35t81 11.5q111 0 172.5 -65.5t67.5 -151.5q0 -70 -22.5 -123.5t-60.5 -90t-89.5 -55t-106.5 -18.5v104q41 2 71 14.5t50 32.5q-23 -4 -41 -8t-41 -4q-41 0 -82 11.5t-75.5 35t-56 57t-21.5 78.5z" />
<glyph unicode="-" horiz-adv-x="512" d="M57 504v287h408v-287h-408z" />
<glyph unicode="." horiz-adv-x="538" d="M35 184q0 45 20.5 79t53 56.5t75.5 35t88 12.5q43 0 86 -11.5t76 -35t54.5 -57.5t21.5 -79t-22.5 -78.5t-56.5 -57t-77 -35t-82 -11.5q-41 0 -83 11.5t-75.5 35t-56 57t-22.5 78.5z" />
<glyph unicode="/" horiz-adv-x="577" d="M31 0l286 1329h213l-286 -1329h-213z" />
<glyph unicode="0" horiz-adv-x="1474" d="M47 666q0 141 55.5 267t150.5 220t221 149.5t267 55.5t266.5 -55.5t220.5 -150.5t150.5 -220t55.5 -266q0 -139 -54.5 -265.5t-148.5 -221.5t-220 -150.5t-270 -55.5q-141 0 -268 55.5t-221 149.5t-149.5 220t-55.5 268zM778 424q0 -74 52.5 -126t125.5 -52q37 0 69 14 t55.5 38t38 56.5t14.5 69.5t-14.5 68.5t-38 55t-55.5 38t-69 14.5t-69.5 -14.5t-56 -38t-38 -55t-14.5 -68.5z" />
<glyph unicode="1" horiz-adv-x="694" d="M45 881l178 448h424v-1329h-442v881h-160z" />
<glyph unicode="2" horiz-adv-x="987" d="M45 0l444 741q10 14 11 37q0 27 -18.5 44.5t-45.5 17.5q-23 0 -46 -14.5t-42 -49.5l-291 103q0 92 38 174t100.5 141t143.5 94t167 35q100 0 181 -38t138.5 -100.5t87 -142t29.5 -161.5q0 -102 -47 -197l-119 -235h160v-449h-891z" />
<glyph unicode="3" horiz-adv-x="978" d="M45 186q80 45 149.5 95.5t121 114t81 142t29.5 179.5v36.5t-2 43.5l-160 -41l72 178h-137q23 102 40 199.5t33 195.5h662l-137 -342q47 -92 80.5 -188.5t33.5 -202.5q0 -117 -34.5 -225.5t-102 -199.5t-168 -161.5t-231.5 -113.5z" />
<glyph unicode="4" horiz-adv-x="1200" d="M37 287l383 1042h528v-594h207v-479h-217v-256h-532v287h-369zM633 545h137v256z" />
<glyph unicode="5" horiz-adv-x="851" d="M39 453l70 876h704v-366h-555l-14 -183q39 23 80 35t73 12q80 0 149.5 -27.5t122 -81.5t83 -134t30.5 -185q0 -106 -32.5 -206.5t-85.5 -192.5h-338q35 109 53 167t18 103q0 57 -23.5 93t-60.5 55.5t-83 27t-91 7.5h-100z" />
<glyph unicode="6" horiz-adv-x="1189" d="M53 575q0 143 43 280.5t131 245t223.5 173t317.5 65.5q53 0 106.5 -4t106.5 -12q4 -33 9 -66.5t11 -66.5l19 -135q-63 -20 -123.5 -48t-112.5 -75q74 -25 137.5 -70t110.5 -104.5t75 -131t28 -149.5q0 -111 -47.5 -200t-124 -152.5t-173 -97t-194.5 -33.5 q-123 0 -222.5 47t-171 127t-110.5 185.5t-39 221.5zM389 592q0 -53 39 -93t94 -40q53 0 92 40t39 93t-39 93t-92 40q-55 0 -94 -40t-39 -93z" />
<glyph unicode="7" horiz-adv-x="980" d="M45 799l129 530h764l-360 -1329h-476l222 799h-279z" />
<glyph unicode="8" horiz-adv-x="1064" d="M49 487q0 104 44 199.5t122 165.5q-14 35 -22.5 70.5t-8.5 72.5q0 141 101 242q102 102 243 102q139 0 242 -102q102 -102 102 -242q0 -35 -7 -69.5t-23 -67.5q86 -70 130 -167.5t44 -203.5q0 -199 -144 -342q-141 -143 -340 -143t-342 143q-141 143 -141 342zM451 768 q0 -43 30.5 -74.5t75.5 -31.5q43 0 75 31.5t32 74.5q0 45 -32 75.5t-75 30.5q-45 0 -75.5 -30.5t-30.5 -75.5zM467 1010q0 -35 25.5 -60.5t60.5 -25.5t60.5 25.5t25.5 60.5t-25.5 60.5t-60.5 25.5t-60.5 -26t-25.5 -60z" />
<glyph unicode="9" horiz-adv-x="1159" d="M53 764q0 229 162 397t393 168h498v-1329h-463v201q-4 0 -10 -1t-25 -1q-231 0 -393 168t-162 397zM504 969q0 -20 5 -51t16.5 -61t30.5 -50.5t50 -20.5q14 2 18.5 3.5t6.5 3.5v352q-8 8 -25 8q-29 0 -48 -19.5t-31.5 -48t-17.5 -60.5t-5 -56z" />
<glyph unicode=":" horiz-adv-x="538" d="M35 184q0 45 22.5 79t57.5 56.5t76.5 35t80.5 12.5t81 -11.5t77 -35t57.5 -57.5t22.5 -79t-22.5 -78.5t-57.5 -57t-77 -35t-81 -11.5t-80.5 11.5t-76.5 34t-57.5 56t-22.5 80.5zM35 676q0 45 22.5 78.5t57.5 56.5t76.5 35t80.5 12t81 -11t77 -35t57.5 -57.5t22.5 -78.5 t-22.5 -79t-57.5 -57.5t-77 -34.5t-81 -11t-80.5 11t-76.5 33.5t-57.5 56.5t-22.5 81z" />
<glyph unicode=";" horiz-adv-x="524" d="M25 184q0 45 22.5 79t56 57.5t75.5 35t81 11.5q111 0 175.5 -59.5t64.5 -176.5q0 -59 -22.5 -109.5t-60.5 -85t-89.5 -54t-106.5 -19.5v104q41 2 71 14.5t50 32.5q-23 -4 -41 -8t-41 -4q-41 0 -82 11.5t-75.5 35t-56 57t-21.5 78.5zM35 676q0 45 22.5 78.5t57.5 56.5 t76.5 35t80.5 12t81 -11t77 -35t57.5 -57.5t22.5 -78.5t-22.5 -79t-57.5 -57.5t-77 -34.5t-81 -11t-80.5 11t-76.5 33.5t-57.5 56.5t-22.5 81z" />
<glyph unicode="&#x3c;" d="M35 604v283l780 340v-336l-334 -146l334 -145v-336z" />
<glyph unicode="=" d="M57 303v287h920v-287h-920zM57 705v286h920v-286h-920z" />
<glyph unicode="&#x3e;" d="M35 264v336l334 145l-334 146v336l780 -340v-283z" />
<glyph unicode="?" horiz-adv-x="921" d="M41 1298q68 53 145.5 79t157.5 26q100 0 196.5 -38t171 -106.5t121 -165t46.5 -210.5q0 -104 -42 -198.5t-114 -167.5t-167 -115t-202 -42q-53 0 -108 13q-16 86 -37 172q92 8 130 40.5t38 69.5q0 35 -30 62.5t-77 27.5q-45 0 -98 -32zM334 172q0 39 18.5 73t50 59.5 t73.5 39.5t91 14t91 -14t74 -39.5t50.5 -59.5t18.5 -73t-18.5 -72.5t-50.5 -58.5t-74 -39t-91 -14t-91 14t-73.5 39t-50 58.5t-18.5 72.5z" />
<glyph unicode="@" horiz-adv-x="1333" d="M35 680q0 139 46 263t132 216t208 145.5t271 53.5q133 0 245 -45t191.5 -125t124.5 -189.5t45 -238.5q0 -68 -16 -139.5t-51 -132t-90.5 -98.5t-132.5 -38q-80 0 -140 41q-41 -35 -94 -56.5t-112 -21.5q-74 0 -133.5 28t-100.5 76t-62.5 110.5t-21.5 132.5q0 68 21.5 130 t62.5 110t100.5 76t133.5 28q59 0 109 -18.5t89 -53.5l111 63v-393q0 -16 9 -28.5t28 -12.5q25 0 40 26.5t23 62.5t11 72t3 54q0 82 -29.5 149.5t-81.5 117t-124 76t-158 26.5q-104 0 -187 -37t-139.5 -100.5t-87 -148.5t-30.5 -181q0 -98 30.5 -183t89 -149.5t142.5 -101.5 t188 -37q102 0 205 27.5t189 87.5l118 -177q-111 -76 -245 -112.5t-267 -36.5q-152 0 -273.5 53t-208.5 146.5t-134 217.5t-47 265zM555 662q0 -47 25.5 -90.5t81.5 -43.5q41 0 69.5 29t28.5 68v71q0 41 -29 70t-69 29q-55 0 -81 -43t-26 -90z" />
<glyph unicode="A" horiz-adv-x="1140" d="M51 487q0 172 67.5 325t182.5 268.5t268.5 182t325.5 66.5q49 0 98 -6l64 -8q6 0 14 -1t19 -3v-1311h-469v254h-179q8 -70 32 -132.5t50 -121.5h-319q-70 117 -112 233.5t-42 253.5zM453 432h168v277q-63 -53 -106.5 -124t-61.5 -153z" />
<glyph unicode="B" horiz-adv-x="1110" d="M51 0v1329h516q100 0 190.5 -40t158 -107.5t106.5 -156.5t39 -187q0 -129 -61.5 -241t-172.5 -177q25 -33 39.5 -73t14.5 -85q0 -53 -21.5 -100t-57.5 -83t-83 -57.5t-101 -21.5h-567zM506 178h59q35 0 59.5 24.5t24.5 59.5q0 33 -22.5 58.5t-59.5 25.5l-61 -2v-166z M506 522q59 2 100 45.5t41 100.5q0 59 -41 101t-100 42v-289z" />
<glyph unicode="C" d="M47 666q0 137 53.5 257.5t144.5 211t210.5 142.5t255.5 52q72 0 139.5 -15.5t126.5 -35.5v-754q-25 2 -49.5 3t-46.5 1q-61 0 -105.5 -44t-44.5 -103q0 -61 44 -105.5t106 -44.5q25 0 47 2.5t49 2.5v-183q-61 -20 -128 -36.5t-138 -16.5q-135 0 -256 53t-212 144.5 t-143.5 212t-52.5 256.5z" />
<glyph unicode="D" horiz-adv-x="1200" d="M55 -2v1331h424q135 0 257 -53t212 -143.5t143.5 -212t53.5 -256.5t-53.5 -256t-143.5 -212.5t-211 -144.5t-258 -53h-424zM326 178h32q63 0 107.5 45.5t44.5 108.5q0 29 -11.5 56.5t-32 49t-48 34.5t-60.5 13l-32 -2v-305z" />
<glyph unicode="E" horiz-adv-x="948" d="M76 0v1329h829v-416h-375v-497h375v-416h-829zM604 662q0 53 40 92t93 39q55 0 94 -39t39 -92q0 -55 -38.5 -94.5t-94.5 -39.5q-53 0 -93 39t-40 95z" />
<glyph unicode="F" horiz-adv-x="913" d="M41 0v1329h831v-416h-376v-913h-455zM571 662q0 53 39 92t92 39q55 0 94.5 -39t39.5 -92q0 -55 -39 -94.5t-95 -39.5q-53 0 -92 39t-39 95z" />
<glyph unicode="G" horiz-adv-x="1200" d="M55 666q0 137 53.5 257.5t144.5 211t211 142.5t255 52q121 0 228.5 -40.5t199.5 -110.5q-25 -86 -48.5 -171t-45.5 -171l-92 -344q-53 22 -101 22h-4q-66 0 -113 -38t-47 -116q0 -63 44 -107t108 -44q14 0 18 2v137h189v-260q-109 -49 -185.5 -68.5t-150.5 -19.5 q-135 0 -256 53t-212 144.5t-143.5 212t-52.5 256.5z" />
<glyph unicode="H" horiz-adv-x="1236" d="M55 0v1329h494v-715h139v715h494v-1329h-494v256h-139v-256h-494z" />
<glyph unicode="I" horiz-adv-x="573" d="M51 0v1329h479v-1329h-479z" />
<glyph unicode="J" horiz-adv-x="632" d="M-102 -86q158 47 157 123v1292h523v-1259q0 -86 -34 -162t-92.5 -134.5t-135 -92t-162.5 -33.5q-68 0 -135.5 22.5t-120.5 61.5v182z" />
<glyph unicode="K" horiz-adv-x="1298" d="M59 0v1329h482v-399l350 428l377 -314l-432 -491l403 -420l-360 -330l-338 369v-172h-482z" />
<glyph unicode="L" horiz-adv-x="813" d="M37 0v1329h479v-766h260v-563h-739z" />
<glyph unicode="M" horiz-adv-x="1574" d="M53 526q0 256 113 455t307 352q98 -88 179 -185t139 -220q57 123 138 220t179 185q193 -156 306.5 -353.5t113.5 -453.5q0 -141 -32 -269t-91 -257h-354v248l-260 -250l-261 250v-248h-354q-57 129 -90 257t-33 269z" />
<glyph unicode="N" horiz-adv-x="1155" d="M53 0v1321l600 -297v305h449v-1356l-600 297v-270h-449z" />
<glyph unicode="O" horiz-adv-x="1474" d="M47 666q0 141 55.5 267t150.5 220t221 149.5t267 55.5t266.5 -55.5t220.5 -150.5t150.5 -220t55.5 -266q0 -139 -54.5 -265.5t-148.5 -221.5t-220 -150.5t-270 -55.5q-141 0 -268 55.5t-221 149.5t-149.5 220t-55.5 268zM778 424q0 -74 52.5 -126t125.5 -52q37 0 69 14 t55.5 38t38 56.5t14.5 69.5t-14.5 68.5t-38 55t-55.5 38t-69 14.5t-69.5 -14.5t-56 -38t-38 -55t-14.5 -68.5z" />
<glyph unicode="P" horiz-adv-x="1159" d="M53 0v1331h473q117 0 222.5 -46t185.5 -126t126 -185t46 -222q0 -115 -43 -216.5t-118 -180.5t-174 -127t-212 -54v-174h-506zM543 354q55 10 91 54.5t36 99.5q0 57 -36 101t-91 55v-310z" />
<glyph unicode="Q" horiz-adv-x="1478" d="M47 666q0 141 55.5 267t150.5 220t221 149.5t267 55.5t266.5 -55.5t220.5 -150.5t150.5 -220t55.5 -266q0 -115 -39 -222.5t-106.5 -196.5t-161 -153.5t-201.5 -95.5q16 -16 41.5 -27.5t40.5 -11.5q25 0 39 12.5t26 40.5l283 -194q-20 -47 -55 -90t-80 -75t-98.5 -50.5 t-110.5 -18.5q-55 0 -96.5 20.5t-77 46t-70.5 46t-78 20.5q-16 0 -39.5 -12t-40.5 -45l-282 197q23 49 53.5 88t89.5 82q-92 39 -170 103.5t-134 148t-88 183t-32 204.5zM778 424q0 -74 52.5 -126t125.5 -52q37 0 69 14t55.5 38t38 56.5t14.5 69.5t-14.5 68.5t-38 55 t-55.5 38t-69 14.5t-69.5 -14.5t-56 -38t-38 -55t-14.5 -68.5z" />
<glyph unicode="R" horiz-adv-x="1239" d="M57 0v1331h475q127 0 232.5 -50t182.5 -132t119 -186.5t42 -210.5q0 -92 -28.5 -186.5t-98.5 -178.5l231 -221l-286 -297l-320 309q-12 0 -18 -2t-23 -2v-174h-508zM549 354q53 10 89 54.5t36 99.5q0 57 -36 101t-89 55v-310z" />
<glyph unicode="S" horiz-adv-x="956" d="M27 2q10 117 16 236.5t10 240.5q63 10 100 40t55.5 68t23 79t4.5 77q0 117 43 222.5t116.5 186.5t173 129t213.5 48h15.5t25 -1t40 -3t65.5 -6q-4 -119 -10.5 -237.5t-16.5 -237.5q-63 -10 -100 -34t-55.5 -57.5t-22.5 -77.5t-4 -97q0 -115 -42 -220.5t-116 -186.5 t-176 -129t-223 -48q-12 0 -41 1t-94 7z" />
<glyph unicode="T" horiz-adv-x="1032" d="M47 834v497h938v-497h-235v-834h-467v834h-236z" />
<glyph unicode="U" horiz-adv-x="1269" d="M57 549v782h508v-391q0 -57 40 -97t95 -40q57 0 97.5 40t40.5 97v391h374v-782q0 -117 -46 -222.5t-124.5 -183t-184 -124t-222.5 -46.5q-115 0 -219.5 45t-184 124t-127 183.5t-47.5 223.5z" />
<glyph unicode="V" horiz-adv-x="1585" d="M4 1120l447 303l342 -546l342 546l446 -303l-788 -1192z" />
<glyph unicode="W" horiz-adv-x="1800" d="M4 1090l393 313l318 -584l186 373l186 -373l316 584l395 -313l-606 -1131l-291 399l-291 -399z" />
<glyph unicode="X" horiz-adv-x="1323" d="M-2 293l305 377l-305 377l426 346l233 -287l234 287l426 -346l-305 -377l305 -377l-426 -346l-234 286l-233 -286z" />
<glyph unicode="Y" horiz-adv-x="1347" d="M8 1192l398 223l268 -448l268 448l397 -223l-811 -1362l-383 252l263 438z" />
<glyph unicode="Z" horiz-adv-x="1320" d="M20 0l463 805h-268v526h1085l-460 -805h311v-526h-1131z" />
<glyph unicode="[" horiz-adv-x="524" d="M35 -348v1710h450v-98h-123v-1512h123v-100h-450z" />
<glyph unicode="\" horiz-adv-x="577" d="M31 1329h213l286 -1329h-213z" />
<glyph unicode="]" d="M35 -248h123v1512h-123v98h450v-1710h-450v100z" />
<glyph unicode="^" horiz-adv-x="880" d="M27 705l286 651h250l287 -651h-338l-74 167l-73 -167h-338z" />
<glyph unicode="_" d="M0 -2h1022v-184h-1022v184z" />
<glyph unicode="`" horiz-adv-x="649" d="M68 1221l141 247l360 -272l-84 -147z" />
<glyph unicode="a" horiz-adv-x="1130" d="M51 387q0 78 31 148.5t84 124t123.5 84t148.5 30.5h25v170q47 27 107.5 53.5t127.5 26.5q78 0 147.5 -30.5t122 -83t82 -122t29.5 -145.5v-643h-479v35q-80 -35 -162 -35q-78 0 -148.5 30.5t-123.5 84t-84 124t-31 148.5zM410 311q0 -39 27.5 -66.5t64.5 -27.5 q39 0 66.5 27.5t27.5 66.5q0 37 -27.5 64.5t-66.5 27.5q-37 0 -64.5 -27.5t-27.5 -64.5z" />
<glyph unicode="b" horiz-adv-x="1251" d="M57 0v1329h480v-330q35 10 71.5 17.5t75.5 7.5q102 0 195.5 -41t163 -111.5t110.5 -163t41 -196.5t-41 -197.5t-110.5 -163t-162 -110.5t-196.5 -41q-39 0 -76 7t-71 16v-23h-480zM537 195h28q43 0 75 30.5t32 73.5q0 45 -32 76t-75 31h-28v-211z" />
<glyph unicode="c" horiz-adv-x="802" d="M186 872q152 152 363 152q109 0 219 -45v-594q-49 16 -78 16q-53 0 -77.5 -28.5t-24.5 -63.5q0 -37 27.5 -69.5t80.5 -32.5q35 0 72 14v-176q-51 -18 -105.5 -31.5t-113.5 -13.5q-213 0 -363 150q-149 149 -149 359q0 214 149 363z" />
<glyph unicode="d" horiz-adv-x="1251" d="M57 512q0 211 150 360q152 152 362 152q39 0 75 -7t71 -18v330h479v-1329h-479v23q-35 -8 -71 -15.5t-75 -7.5q-213 0 -362 150q-150 150 -150 362zM582 299q0 -43 30.5 -73.5t73.5 -30.5h29v211h-29q-43 0 -73.5 -31t-30.5 -76z" />
<glyph unicode="e" horiz-adv-x="1126" d="M51 512q0 104 41 197.5t110.5 163t163 110.5t197.5 41q102 0 195.5 -39t164 -107.5t111.5 -161t41 -196.5q-2 -45 -10 -88t-23 -84l-14 -41h-453q49 -61 121 -61q18 0 43 4t74 14l45 -176q-66 -37 -138.5 -62.5t-156.5 -25.5q-106 0 -199.5 40t-163 109.5t-109.5 163 t-40 199.5zM573 483h246q-20 31 -54 47.5t-69 16.5q-37 0 -69.5 -16.5t-53.5 -47.5z" />
<glyph unicode="f" horiz-adv-x="677" d="M31 0v950q0 78 30.5 146.5t83 121t122 82t145.5 29.5q49 0 101 -16.5t134 -61.5v-174q-70 -4 -103.5 -31.5t-33.5 -68.5v-43h104v-178h-104v-756h-479z" />
<glyph unicode="g" horiz-adv-x="1128" d="M43 518q0 104 41 197.5t110.5 163t163 110.5t197.5 41q86 0 168 -29l57 302l346 -195l-231 -209q80 -70 126 -169t46 -212q0 -104 -41 -197.5t-110.5 -163t-163 -110.5t-197.5 -41h-18l-13 -26q25 -8 52.5 -12.5t56.5 -8.5q68 -6 118 -26.5t82.5 -53.5t49 -72.5 t16.5 -82.5q0 -84 -47 -153t-104 -132l-211 49q8 25 8 49q0 33 -16.5 49.5t-39.5 24.5q-53 16 -108 29.5t-99 38t-72 66.5t-28 114q0 66 31 123t72 104q-106 68 -174 182.5t-68 249.5zM608 348q0 -39 30 -67.5t69 -28.5t67.5 28.5t28.5 67.5q0 41 -29 68.5t-67 27.5 q-39 0 -69 -27.5t-30 -68.5z" />
<glyph unicode="h" horiz-adv-x="1021" d="M47 0v1329h479v-307q8 0 13 2h10q86 0 164 -35t136 -93t93 -136t35 -164v-596h-315v324q0 29 -19.5 48t-48.5 19q-27 0 -47.5 -19.5t-20.5 -47.5v-324h-479z" />
<glyph unicode="i" horiz-adv-x="577" d="M51 0v1024h479v-1024h-479zM53 1251q0 45 22.5 79t56.5 57.5t76 35t83 11.5q39 0 82 -11.5t76.5 -35t56 -57.5t22.5 -79t-22.5 -78.5t-56 -57t-76.5 -35t-82 -11.5q-41 0 -83 11.5t-76 35t-56.5 57t-22.5 78.5z" />
<glyph unicode="j" horiz-adv-x="606" d="M-63 -51q14 0 36.5 7t45 20.5t39 31t16.5 37.5v979h479v-950q0 -78 -30.5 -146.5t-83 -121t-122 -82t-145.5 -29.5q-51 0 -103.5 17.5t-131.5 62.5v174zM68 1251q0 45 21.5 80t56 57.5t76.5 34t83 11.5q39 0 81 -11.5t77 -35t56.5 -57.5t21.5 -79t-21.5 -78.5t-56.5 -57 t-77 -35t-81 -11.5q-41 0 -83 11.5t-75.5 35t-56 57t-22.5 78.5z" />
<glyph unicode="k" horiz-adv-x="1212" d="M55 0v1329h480v-610l309 377l313 -262l-319 -367l299 -311l-301 -277l-301 328v-207h-480z" />
<glyph unicode="l" horiz-adv-x="577" d="M51 0v1329h479v-1329h-479z" />
<glyph unicode="m" horiz-adv-x="1376" d="M49 602q0 78 19.5 153.5t62.5 135t110.5 96.5t164.5 37q102 0 173.5 -65.5t112.5 -151.5q41 86 113 151.5t174 65.5q92 0 157.5 -37t108.5 -97.5t62.5 -138t19.5 -159.5q0 -154 -39 -302.5t-104 -289.5h-320v156l-172 -166l-172 166v-156h-319q-66 141 -109 293.5 t-43 308.5z" />
<glyph unicode="n" horiz-adv-x="1021" d="M47 0v1024h502q86 0 164 -35t136 -93t93 -136t35 -164v-596h-315v324q0 29 -19.5 48t-48.5 19q-27 0 -47.5 -19.5t-20.5 -47.5v-324h-479z" />
<glyph unicode="o" horiz-adv-x="1163" d="M43 512q0 111 43 208t116.5 170t172 116t207.5 43t206 -43t170.5 -117t116.5 -171t43 -206q0 -111 -43 -208t-116.5 -170t-171 -116t-205.5 -43q-109 0 -206 42t-171 115t-118 170t-44 210zM635 342q0 -39 28.5 -67.5t67.5 -28.5q41 0 68.5 28.5t27.5 67.5 q0 41 -27.5 68.5t-68.5 27.5q-39 0 -67.5 -27.5t-28.5 -68.5z" />
<glyph unicode="p" horiz-adv-x="1232" d="M55 -307v1331h480v-25q35 10 71.5 17.5t75.5 7.5q100 0 192.5 -40t163 -109.5t112.5 -163t42 -199.5q0 -102 -40 -194.5t-108.5 -163t-162 -112.5t-199.5 -42q-39 0 -76 7t-71 16v-330h-480zM535 233q14 -2 19 -2h9q43 0 75 32t32 75t-32 74.5t-75 31.5q-14 -2 -19 -2h-9 v-209z" />
<glyph unicode="q" horiz-adv-x="1228" d="M31 512q0 100 40 193.5t108.5 164t161.5 112.5t202 42q39 0 74.5 -7t70.5 -18v25h479v-1331h-479v330q-35 -8 -70.5 -15.5t-74.5 -7.5q-102 0 -194.5 40t-163 108.5t-112.5 161.5t-42 202zM555 338q0 -43 30.5 -75t73.5 -32h11.5t17.5 2v209h-9t-20 2q-43 0 -73.5 -31.5 t-30.5 -74.5z" />
<glyph unicode="r" horiz-adv-x="1122" d="M51 0v1024h479v-1024h-479zM543 760q0 51 20.5 99t56 85t84 58.5t103.5 21.5q51 0 99 -20.5t85 -56.5t58.5 -84t21.5 -103q0 -53 -20.5 -100.5t-56.5 -84t-84 -58t-103 -21.5q-53 0 -100.5 20.5t-84 56t-58 84t-21.5 103.5z" />
<glyph unicode="s" horiz-adv-x="931" d="M25 -8l30 401q47 6 79 16.5t50.5 30t28.5 51t14 80.5q0 113 48.5 199t128 144.5t183 89t212.5 30.5h50t50 -2q-10 -100 -14 -201.5t-15 -201.5q-45 -6 -76.5 -15.5t-52 -29t-31 -52t-12.5 -88.5q-18 -133 -73.5 -220t-135 -139t-180 -73.5t-213.5 -21.5h-36.5t-34.5 2z " />
<glyph unicode="t" horiz-adv-x="704" d="M33 381v590l246 250h231v-197h162v-178h-162v-494q0 -25 14.5 -41t35 -27.5t45 -18.5t42.5 -13v-174q-55 -29 -110.5 -53.5t-124.5 -24.5q-156 0 -269 113q-111 113 -110 268z" />
<glyph unicode="u" horiz-adv-x="1021" d="M47 428v596h313v-326q0 -27 20.5 -47t47.5 -20q29 0 48.5 20.5t19.5 46.5v326h481v-1024h-502q-176 0 -303 127q-125 125 -125 301z" />
<glyph unicode="v" horiz-adv-x="1318" d="M-2 852l393 242l268 -389l269 389l393 -242l-662 -905z" />
<glyph unicode="w" horiz-adv-x="1550" d="M6 844l361 258l256 -428l153 280l154 -280l258 428l360 -258l-530 -889l-242 301l-241 -301z" />
<glyph unicode="x" horiz-adv-x="1050" d="M4 248l229 280l-229 283l350 285l168 -209l170 209l348 -285l-227 -283l227 -280l-348 -285l-170 209l-168 -209z" />
<glyph unicode="y" horiz-adv-x="1116" d="M-41 -256l336 653l-285 627h330l131 -281l143 281h490l-645 -1282z" />
<glyph unicode="z" horiz-adv-x="1032" d="M8 0l338 588h-219v430h899l-338 -586h252v-432h-932z" />
<glyph unicode="{" horiz-adv-x="735" d="M49 420v18q76 27 124 91.5t48 148.5v489q0 82 27.5 133.5t74 81t106.5 40t128 10.5h129v-62q-76 -23 -125 -86t-49 -160v-446q0 -92 -59.5 -162t-147.5 -86q88 -16 147.5 -86t59.5 -164v-446q0 -94 49 -157.5t125 -86.5v-63h-129q-68 0 -128 11t-106.5 39.5t-74 81 t-27.5 134.5v487q0 84 -48 149.5t-124 90.5z" />
<glyph unicode="|" horiz-adv-x="321" d="M45 -561v1997h240v-1997h-240z" />
<glyph unicode="}" d="M49 -510q76 23 125 86.5t49 157.5v446q0 94 59.5 164t147.5 86q-88 16 -147.5 86t-59.5 162v446q0 96 -49 160t-125 86v62h129q68 0 128.5 -10.5t106.5 -40t73.5 -81t27.5 -133.5v-489q0 -84 48 -148.5t124 -91.5v-18q-76 -25 -124 -90.5t-48 -149.5v-487 q0 -82 -27.5 -134.5t-73.5 -81t-106.5 -39.5t-128.5 -11h-129v63z" />
<glyph unicode="~" d="M35 1087q76 76 153.5 107t161.5 31q57 0 115.5 -17.5t114 -37t105.5 -37t91 -17.5q25 0 47.5 8.5t48.5 36.5l222 -219q-66 -66 -144 -100.5t-174 -34.5q-57 0 -115.5 16.5t-115 37t-106.5 36.5t-89 16q-23 0 -47 -9t-49 -36z" />
<glyph unicode="&#xa1;" horiz-adv-x="813" d="M35 -260l309 960l309 -65l-49 -502q-12 -125 -26.5 -250t-24.5 -250q-131 27 -260 54.5t-258 52.5zM309 887q0 39 18.5 72.5t49.5 58t73 39t89 14.5t89 -14.5t72.5 -39t49 -58t18.5 -72.5q0 -78 -66.5 -130t-162.5 -52t-163 52t-67 130z" />
<glyph unicode="&#xa2;" horiz-adv-x="802" d="M37 647q0 86 27.5 164t76.5 142.5t116 112.5t144 73v157h125v-137h23q59 0 109.5 -13t109.5 -32v-594q-23 10 -43 14.5t-37 4.5q-51 0 -77.5 -30t-26.5 -65t29.5 -64.5t93.5 -29.5q27 0 61 6v-176q-18 -12 -45 -20t-55.5 -13.5t-57 -8.5t-53.5 -3q-23 0 -31 2v-137h-125 v158q-76 23 -142 68.5t-115.5 110t-78 144.5t-28.5 166z" />
<glyph unicode="&#xa3;" horiz-adv-x="919" d="M41 543v125h109q-10 45 -18.5 75.5t-8.5 71.5q0 111 44 194t113.5 143t153.5 98t164 59l86 -389q-23 -4 -46.5 -16.5t-41.5 -30t-30.5 -40t-12.5 -49.5q0 -29 8 -57.5t14 -58.5h177v-125h-164q0 -41 -6.5 -79t-16.5 -79h314q-37 -96 -61.5 -159.5t-42 -105.5t-28 -68.5 t-18.5 -51.5h-604q-14 92 -27.5 184t-29.5 185q70 43 86 86t16 88h-129z" />
<glyph unicode="&#xa4;" horiz-adv-x="1216" d="M55 694l41 125h78q27 111 88.5 203t146.5 159.5t186 104.5t210 37q184 0 377 -94l-144 -350q-39 20 -85 31.5t-93 11.5q-59 0 -110.5 -24t-79.5 -79h362l-41 -125h-370q-2 -6 -3 -28v-16.5t3 -18.5h350l-41 -125h-256q39 -51 88 -73.5t108 -22.5q47 0 100.5 14t106.5 41 v-418q-76 -20 -146.5 -31.5t-139.5 -11.5q-92 0 -189.5 35t-182.5 100.5t-150.5 157.5t-94.5 209h-117l41 125h58v63h-101z" />
<glyph unicode="&#xa5;" horiz-adv-x="1179" d="M37 1329h336l129 -278l143 278h496l-279 -510h197v-125h-266l-17 -30v-33h283v-125h-283v-506h-381v506h-301v125h285l-31 63h-254v125h193z" />
<glyph unicode="&#xa6;" />
<glyph unicode="&#xa7;" horiz-adv-x="1003" d="M49 -227q0 61 43 105t105 44h508v-123h-508q-27 0 -27 -26v-25h535v-123h-535v-174h-121v322zM49 1163v254h402v-862h-256v608h-146zM401 2v324q0 59 43 102t107 43h506v-119h-506q-27 0 -27 -26v-27h533v-123h-533v-174h-123zM625 555v399q0 94 36.5 179.5t99 147.5 t146.5 99t180 37h717v-399q0 -96 -36.5 -180t-99 -146.5t-147.5 -99.5t-180 -37h-716zM774 -334q0 51 20.5 98.5t55.5 81t81 54t99 20.5h397v-217q0 -53 -20.5 -98t-54 -80t-80.5 -54.5t-98 -19.5h-400v215zM877 807h464q43 0 81 16.5t67 45t45 67.5t16 82v145h-463 q-43 0 -81.5 -16.5t-67.5 -45t-45 -66.5t-16 -81v-147zM897 -334v-94h277q55 0 93 39t38 92v94h-275q-55 0 -94 -38t-39 -93zM1171 2v469h691v-162q0 -72 -49.5 -125t-118.5 -61l112 -121h-164l-112 121h-176v123h321q29 0 47.5 17.5t18.5 45.5v41h-447v-348h-123zM1538 -80 h68q86 0 169 -29.5t152 -83.5q96 -76 154 -182v297h123v-471h-181q-23 82 -61.5 144.5t-108.5 115.5q-90 68 -194 82v-342h-121v469zM1964 152q0 47 29 86q-29 39 -29 88q0 59 44 102t106 43h507v-119h-507q-27 0 -27 -26q0 -27 27 -27h507v-123h-507q-10 0 -18.5 -7 t-8.5 -17q0 -27 27 -27h507v-123h-507q-61 0 -105.5 43t-44.5 107zM1978 555v399q0 94 36 179.5t99.5 147.5t148.5 99t181 37h717v-399q0 -96 -37 -180t-99.5 -146.5t-147.5 -99.5t-181 -37h-717zM2232 807h463q43 0 81 16.5t66.5 45t45 67.5t16.5 82v145h-461 q-43 0 -82 -16.5t-67.5 -45t-45 -66.5t-16.5 -81v-147zM2306 -78h678v-123h-344v-227h145v-121h-268v348h-211v123zM2726 152q0 47 29 86q-29 39 -29 88q0 59 43 102t102 43h508v-119h-508q-10 0 -17 -8t-7 -18q0 -12 7 -19.5t17 -7.5h508v-123h-508q-10 0 -17 -7t-7 -17 t7 -18.5t17 -8.5h508v-123h-508q-59 0 -102 43t-43 107zM3068 -315q0 49 18.5 92t51 75.5t74.5 51t91 18.5h431v-123h-431q-29 0 -53 -14t-41 -37h525v-63q0 -47 -18.5 -90.5t-50.5 -75t-75 -50t-92 -18.5h-430v121h430q59 0 96 53h-526v60zM3332 1163v254h402v-862h-254 v608h-148z" />
<glyph unicode="&#xa8;" horiz-adv-x="595" d="M41 1163q0 47 34 82t81 35t81.5 -35t34.5 -82t-34.5 -81.5t-81.5 -34.5t-81 34.5t-34 81.5zM324 1163q0 47 34.5 82t81.5 35t82 -35t35 -82t-35 -81.5t-82 -34.5t-81.5 34.5t-34.5 81.5z" />
<glyph unicode="&#xa9;" horiz-adv-x="1443" d="M63 690q0 137 52.5 258t142.5 212t211 143.5t258 52.5t258 -52.5t212 -143.5t143.5 -212t52.5 -258t-52.5 -258t-143.5 -211t-212 -142t-258 -52t-258 52t-211 142t-142.5 211t-52.5 258zM145 690q0 -121 46.5 -226.5t125 -184t184 -124.5t226.5 -46t227.5 46 t185.5 124.5t125 184t46 226.5t-46 227.5t-125 185.5t-185.5 125t-227.5 46t-226.5 -46t-184 -125t-125 -185.5t-46.5 -227.5zM256 692q0 104 41 196.5t109.5 161t160.5 108.5t195 40q53 0 104.5 -11t96.5 -28v-573q-18 2 -37 2h-35q-47 0 -81 -33t-34 -78q0 -47 34 -81 t81 -34q18 0 35.5 2.5t36.5 2.5v-140q-47 -16 -97.5 -28.5t-103.5 -12.5q-104 0 -195.5 41t-161 110t-109.5 161t-40 194z" />
<glyph unicode="&#xaa;" horiz-adv-x="745" d="M35 973q0 53 20.5 99t55 81t81 54.5t97.5 19.5h16v121q47 23 79 34t77 11q49 0 95 -20.5t81 -55.5t55.5 -81t20.5 -95v-424h-318v22q-51 -23 -106 -22q-51 0 -97.5 20.5t-81 55t-55 81t-20.5 99.5zM270 922q0 -25 18.5 -43.5t43.5 -18.5t43 18.5t18 43.5t-18.5 43 t-42.5 18q-25 0 -43.5 -18.5t-18.5 -42.5z" />
<glyph unicode="&#xab;" horiz-adv-x="770" d="M29 575l299 324l84 -90l-144 -234l144 -231l-84 -90zM336 575l299 324l84 -90l-144 -234l144 -231l-84 -90z" />
<glyph unicode="&#xac;" d="M57 504v287h918v-441h-287v154h-631z" />
<glyph unicode="&#xad;" horiz-adv-x="512" d="M57 504v287h408v-287h-408z" />
<glyph unicode="&#xae;" horiz-adv-x="757" d="M31 1038q0 72 27.5 134.5t74.5 109.5t109.5 74.5t134.5 27.5t135 -27.5t110.5 -74.5t74 -109.5t26.5 -134.5t-26.5 -134t-74 -109t-110.5 -75t-135 -28t-134.5 28t-109.5 75t-74.5 109t-27.5 134zM72 1038q0 -63 23.5 -118.5t65.5 -97.5t97 -66.5t119 -24.5 q63 0 119.5 24.5t97.5 66.5t65.5 97.5t24.5 118.5t-24.5 119.5t-65.5 97.5t-97.5 66t-119.5 25t-118.5 -25t-97.5 -66t-65.5 -97.5t-23.5 -119.5zM211 829v435h156q41 0 75.5 -16.5t59 -43t39 -60.5t14.5 -69q0 -31 -9 -60.5t-32 -58.5l76 -73l-94 -97l-105 101h-14v-58 h-166zM373 944q16 4 28.5 18.5t12.5 32.5t-12.5 32.5t-28.5 19.5v-103z" />
<glyph unicode="&#xaf;" horiz-adv-x="620" d="M49 1137v176h522v-176h-522z" />
<glyph unicode="&#xb0;" horiz-adv-x="632" d="M35 1081q0 57 22.5 108.5t60.5 89.5t89 60.5t108 22.5t109.5 -22.5t90.5 -60.5t60.5 -89t22.5 -109q0 -59 -22.5 -110t-60.5 -89t-90 -60.5t-110 -22.5q-57 0 -108 22.5t-89 60.5t-60.5 89t-22.5 110zM207 1081q0 -47 31.5 -78.5t76.5 -31.5q47 0 79 31.5t32 78.5t-32 78 t-79 31q-45 0 -76.5 -32t-31.5 -77z" />
<glyph unicode="&#xb1;" d="M57 0v287h920v-287h-920z" />
<glyph unicode="&#xb2;" horiz-adv-x="444" d="M2 766l201 334q6 12 6 20q0 12 -9.5 19.5t-19.5 7.5q-29 0 -43 -31l-129 45q4 39 19.5 76t40 64.5t60.5 44t81 16.5t82 -17.5t62.5 -45t39 -64.5t13.5 -74q0 -23 -5.5 -45t-15.5 -43l-53 -104h71v-203h-401z" />
<glyph unicode="&#xb3;" horiz-adv-x="440" d="M-16 846q72 41 122 94t50 143v17.5t-2 19.5l-72 -18l33 80h-62l33 178h297l-61 -154q23 -41 37 -85t14 -91q0 -104 -60.5 -190t-181.5 -125z" />
<glyph unicode="&#xb4;" horiz-adv-x="649" d="M119 1196l360 272l142 -247l-418 -172z" />
<glyph unicode="&#xb6;" horiz-adv-x="1306" d="M47 852q0 104 40 197.5t109.5 162t162 108.5t196.5 40h705v-64h-91q-47 0 -79.5 -32.5t-32.5 -79.5v-1790h-121v1872h-197v-1872h-112v952h-72q-104 0 -196.5 40t-162 108.5t-109.5 161t-40 196.5z" />
<glyph unicode="&#xb7;" horiz-adv-x="538" d="M35 717q0 37 18.5 70.5t51 58t75.5 39t92 14.5t92.5 -14.5t76 -39t51 -58t18.5 -70.5t-18.5 -70t-51 -57.5t-75.5 -38.5t-93 -14q-49 0 -92 14t-75.5 38.5t-51 57.5t-18.5 70z" />
<glyph unicode="&#xb8;" horiz-adv-x="690" d="M145 -229l142 276h180l-61 -123q37 -49 36 -114q0 -41 -15 -77t-43 -63.5t-63.5 -44t-76.5 -16.5q-18 0 -38 4t-38 10v43h22q23 0 39.5 16.5t16.5 38.5q0 16 -12.5 32t-28.5 20z" />
<glyph unicode="&#xb9;" horiz-adv-x="313" d="M6 1157l80 203h190v-598h-198v395h-72z" />
<glyph unicode="&#xba;" horiz-adv-x="768" d="M29 1034q0 72 28.5 136.5t76.5 112.5t112.5 77t136.5 29t136.5 -29t112.5 -77t76.5 -112.5t28.5 -136.5t-27.5 -136t-75.5 -113.5t-112.5 -78t-138.5 -28.5t-138.5 28.5t-112.5 78t-75.5 114t-27.5 135.5zM420 922q0 -27 18.5 -45.5t44.5 -18.5q27 0 45.5 18.5t18.5 45.5 t-18.5 45t-45.5 18t-45 -18.5t-18 -44.5z" />
<glyph unicode="&#xbb;" horiz-adv-x="770" d="M47 344l143 231l-143 234l84 90l299 -324l-299 -321zM354 344l144 231l-144 234l84 90l299 -324l-299 -321z" />
<glyph unicode="&#xbc;" horiz-adv-x="1552" d="M61 1055l119 301h285v-891h-297v590h-107zM358 0l549 1360h205l-549 -1360h-205zM754 193l256 698h354v-397h139v-322h-145v-172h-357v193h-247zM1153 365h92v172z" />
<glyph unicode="&#xbd;" horiz-adv-x="1513" d="M49 1055l119 301h285v-891h-297v590h-107zM358 0l549 1360h205l-549 -1360h-205zM883 0l297 498q6 8 6 20q-2 18 -15.5 29.5t-29.5 11.5q-8 0 -17.5 -6t-38.5 -33l-194 68q18 147 100 223t201 76q68 0 122 -25.5t91 -67.5t57.5 -95.5t20.5 -108.5q0 -70 -31 -131 l-80 -158h107v-301h-596z" />
<glyph unicode="&#xbe;" horiz-adv-x="1542" d="M47 590q53 31 99.5 64.5t81 75.5t54 94.5t19.5 119.5v55l-108 -28l49 121h-92q14 68 26 133t23 131h444l-92 -230q31 -61 53.5 -125.5t22.5 -136.5q0 -78 -22.5 -150.5t-64.5 -132t-103.5 -104.5t-137.5 -69l-31 -13zM377 0l549 1360h204l-548 -1360h-205zM739 193 l258 698h353v-397h139v-322h-146v-172h-356v193h-248zM1139 365h92v172z" />
<glyph unicode="&#xbf;" horiz-adv-x="921" d="M41 180q0 104 42 198.5t113.5 167t167 114.5t201.5 42q53 0 109 -12q14 -86 37 -172q-92 -8 -130 -41t-38 -69q0 -35 29.5 -63t76.5 -28q45 0 99 33l131 -586q-68 -53 -146 -78.5t-158 -25.5q-100 0 -196 38t-171 106.5t-121 165t-46 210.5zM119 891q0 39 18.5 72.5 t50 58.5t73.5 39t91 14t91 -14t74 -39t50.5 -58.5t18.5 -72.5t-18.5 -73t-50.5 -59.5t-74 -39.5t-91 -14t-91 14t-73.5 39.5t-50 59.5t-18.5 73z" />
<glyph unicode="&#xc0;" horiz-adv-x="1140" d="M51 487q0 172 67.5 325t182.5 268.5t268.5 182t325.5 66.5q49 0 98 -6l64 -8q6 0 14 -1t19 -3v-1311h-469v254h-179q8 -70 32 -132.5t50 -121.5h-319q-70 117 -112 233.5t-42 253.5zM418 1526l141 247l360 -272l-84 -147zM453 432h168v277q-63 -53 -106.5 -124 t-61.5 -153z" />
<glyph unicode="&#xc1;" horiz-adv-x="1140" d="M51 487q0 172 67.5 325t182.5 268.5t268.5 182t325.5 66.5q49 0 98 -6l64 -8q6 0 14 -1t19 -3v-1311h-469v254h-179q8 -70 32 -132.5t50 -121.5h-319q-70 117 -112 233.5t-42 253.5zM453 432h168v277q-63 -53 -106.5 -124t-61.5 -153zM527 1499l360 272l142 -247 l-418 -172z" />
<glyph unicode="&#xc2;" horiz-adv-x="1140" d="M51 487q0 172 67.5 325t182.5 268.5t268.5 182t325.5 66.5q49 0 98 -6l64 -8q6 0 14 -1t19 -3v-1311h-469v254h-179q8 -70 32 -132.5t50 -121.5h-319q-70 117 -112 233.5t-42 253.5zM387 1379l313 317l315 -317h-231l-84 55l-82 -55h-231zM453 432h168v277 q-63 -53 -106.5 -124t-61.5 -153z" />
<glyph unicode="&#xc3;" horiz-adv-x="1140" d="M51 487q0 172 67.5 325t182.5 268.5t268.5 182t325.5 66.5q49 0 98 -6l64 -8q6 0 14 -1t19 -3v-1311h-469v254h-179q8 -70 32 -132.5t50 -121.5h-319q-70 117 -112 233.5t-42 253.5zM417 1370q0 135 50.5 201.5t138.5 66.5q29 0 54.5 -8t52 -17.5t53 -16.5t57.5 -7 q20 0 33.5 12.5t25.5 53.5l131 -47q0 -41 -8 -84t-28.5 -78t-56.5 -58.5t-91 -23.5q-37 0 -70.5 6t-63.5 14.5t-51.5 14.5t-33.5 6q-20 0 -45 -13.5t-29 -52.5zM453 432h168v277q-63 -53 -106.5 -124t-61.5 -153z" />
<glyph unicode="&#xc4;" horiz-adv-x="1140" d="M51 487q0 172 67.5 325t182.5 268.5t268.5 182t325.5 66.5q49 0 98 -6l64 -8q6 0 14 -1t19 -3v-1311h-469v254h-179q8 -70 32 -132.5t50 -121.5h-319q-70 117 -112 233.5t-42 253.5zM387 1472q0 47 34 82t81 35t81.5 -35t34.5 -82t-34.5 -81.5t-81.5 -34.5t-81 34.5 t-34 81.5zM453 432h168v277q-63 -53 -106.5 -124t-61.5 -153zM670 1472q0 47 34.5 82t81.5 35t82 -35t35 -82t-35 -81.5t-82 -34.5t-81.5 34.5t-34.5 81.5z" />
<glyph unicode="&#xc5;" horiz-adv-x="1140" d="M51 487q0 172 67.5 325t182.5 268.5t268.5 182t325.5 66.5q49 0 98 -6l64 -8q6 0 14 -1t19 -3v-1311h-469v254h-179q8 -70 32 -132.5t50 -121.5h-319q-70 117 -112 233.5t-42 253.5zM453 432h168v277q-63 -53 -106.5 -124t-61.5 -153zM497 1562q0 43 15.5 80t43 64.5 t65.5 44t81 16.5t81 -16.5t65.5 -44t44 -64.5t16.5 -80t-16.5 -79.5t-44 -64.5t-65.5 -44t-81 -16t-81 15t-65.5 43t-43 65.5t-15.5 80.5zM604 1562q0 -39 29.5 -68.5t68.5 -29.5q41 0 69.5 29.5t28.5 68.5q0 41 -28.5 70t-69.5 29q-39 0 -68.5 -29t-29.5 -70z" />
<glyph unicode="&#xc6;" horiz-adv-x="1523" d="M55 487q0 346 248 594q250 250 596 250h559v-418h-375v-497h375v-416h-833v254h-179q8 -66 31 -129.5t51 -124.5h-319q-70 117 -112 233.5t-42 253.5zM457 432h168v277q-63 -53 -106.5 -124t-61.5 -153zM1157 662q0 53 39 92t92 39q55 0 94 -39t39 -92q0 -55 -39 -94.5 t-94 -39.5q-53 0 -92 39t-39 95z" />
<glyph unicode="&#xc7;" d="M47 666q0 137 53.5 257.5t144.5 211t210.5 142.5t255.5 52q72 0 139.5 -15.5t126.5 -35.5v-754q-25 2 -49.5 3t-46.5 1q-61 0 -105.5 -44t-44.5 -103q0 -61 44 -105.5t106 -44.5q25 0 47 2.5t49 2.5v-183q-61 -20 -128 -36.5t-138 -16.5q-135 0 -256 53t-212 144.5 t-143.5 212t-52.5 256.5zM460 -188l142 276h180l-61 -123q37 -49 36 -114q0 -41 -15 -77t-43 -63.5t-63.5 -44t-76.5 -16.5q-18 0 -38 4t-38 10v43h22q23 0 39.5 16.5t16.5 38.5q0 16 -12.5 32t-28.5 20z" />
<glyph unicode="&#xc8;" horiz-adv-x="948" d="M76 0v1329h829v-416h-375v-497h375v-416h-829zM207 1538l141 247l360 -272l-84 -147zM604 662q0 53 40 92t93 39q55 0 94 -39t39 -92q0 -55 -38.5 -94.5t-94.5 -39.5q-53 0 -93 39t-40 95z" />
<glyph unicode="&#xc9;" horiz-adv-x="948" d="M76 0v1329h829v-416h-375v-497h375v-416h-829zM365 1511l360 272l142 -247l-418 -172zM604 662q0 53 40 92t93 39q55 0 94 -39t39 -92q0 -55 -38.5 -94.5t-94.5 -39.5q-53 0 -93 39t-40 95z" />
<glyph unicode="&#xca;" horiz-adv-x="948" d="M76 0v1329h829v-416h-375v-497h375v-416h-829zM187 1373l313 317l315 -317h-231l-84 55l-82 -55h-231zM604 662q0 53 40 92t93 39q55 0 94 -39t39 -92q0 -55 -38.5 -94.5t-94.5 -39.5q-53 0 -93 39t-40 95z" />
<glyph unicode="&#xcb;" horiz-adv-x="948" d="M76 0v1329h829v-416h-375v-497h375v-416h-829zM240 1482q0 47 34 82t81 35t81.5 -35t34.5 -82t-34.5 -81.5t-81.5 -34.5t-81 34.5t-34 81.5zM523 1482q0 47 34.5 82t81.5 35t82 -35t35 -82t-35 -81.5t-82 -34.5t-81.5 34.5t-34.5 81.5zM604 662q0 53 40 92t93 39 q55 0 94 -39t39 -92q0 -55 -38.5 -94.5t-94.5 -39.5q-53 0 -93 39t-40 95z" />
<glyph unicode="&#xcc;" horiz-adv-x="573" d="M-8 1534l141 247l360 -272l-84 -147zM51 0v1329h479v-1329h-479z" />
<glyph unicode="&#xcd;" horiz-adv-x="573" d="M51 0v1329h479v-1329h-479zM111 1515l360 272l142 -247l-418 -172z" />
<glyph unicode="&#xce;" horiz-adv-x="573" d="M-24 1377l313 317l315 -317h-231l-84 55l-82 -55h-231zM51 0v1329h479v-1329h-479z" />
<glyph unicode="&#xcf;" horiz-adv-x="573" d="M31 1493q0 47 34 82t81 35t81.5 -35t34.5 -82t-34.5 -81.5t-81.5 -34.5t-81 34.5t-34 81.5zM51 0v1329h479v-1329h-479zM314 1493q0 47 34.5 82t81.5 35t82 -35t35 -82t-35 -81.5t-82 -34.5t-81.5 34.5t-34.5 81.5z" />
<glyph unicode="&#xd0;" horiz-adv-x="1200" d="M16 258v102h60v969h424q135 0 257 -53t212 -143.5t143 -212t53 -256.5t-53 -256t-143 -212.5t-211 -144.5t-258 -53h-424v260h-60zM346 178h33q63 0 107 45t44 109q0 29 -11 56.5t-31.5 49t-48 34.5t-60.5 13l-33 -2v-123h57v-102h-57v-80z" />
<glyph unicode="&#xd1;" horiz-adv-x="1155" d="M53 0v1321l600 -297v305h449v-1356l-600 297v-270h-449zM256 1389q0 135 50.5 201.5t138.5 66.5q29 0 54.5 -8t52 -17.5t53 -16.5t57.5 -7q20 0 33.5 12.5t25.5 53.5l131 -47q0 -41 -8 -84t-28.5 -78t-56.5 -58.5t-91 -23.5q-37 0 -70.5 6t-63.5 14.5t-51.5 14.5t-33.5 6 q-20 0 -45 -13.5t-29 -52.5z" />
<glyph unicode="&#xd2;" horiz-adv-x="1474" d="M47 666q0 141 55.5 267t150.5 220t221 149.5t267 55.5t266.5 -55.5t220.5 -150.5t150.5 -220t55.5 -266q0 -139 -54.5 -265.5t-148.5 -221.5t-220 -150.5t-270 -55.5q-141 0 -268 55.5t-221 149.5t-149.5 220t-55.5 268zM404 1561l141 247l360 -272l-84 -147zM778 424 q0 -74 52.5 -126t125.5 -52q37 0 69 14t55.5 38t38 56.5t14.5 69.5t-14.5 68.5t-38 55t-55.5 38t-69 14.5t-69.5 -14.5t-56 -38t-38 -55t-14.5 -68.5z" />
<glyph unicode="&#xd3;" horiz-adv-x="1474" d="M47 666q0 141 55.5 267t150.5 220t221 149.5t267 55.5t266.5 -55.5t220.5 -150.5t150.5 -220t55.5 -266q0 -139 -54.5 -265.5t-148.5 -221.5t-220 -150.5t-270 -55.5q-141 0 -268 55.5t-221 149.5t-149.5 220t-55.5 268zM578 1536l360 272l142 -247l-418 -172zM778 424 q0 -74 52.5 -126t125.5 -52q37 0 69 14t55.5 38t38 56.5t14.5 69.5t-14.5 68.5t-38 55t-55.5 38t-69 14.5t-69.5 -14.5t-56 -38t-38 -55t-14.5 -68.5z" />
<glyph unicode="&#xd4;" horiz-adv-x="1474" d="M47 666q0 141 55.5 267t150.5 220t221 149.5t267 55.5t266.5 -55.5t220.5 -150.5t150.5 -220t55.5 -266q0 -139 -54.5 -265.5t-148.5 -221.5t-220 -150.5t-270 -55.5q-141 0 -268 55.5t-221 149.5t-149.5 220t-55.5 268zM422 1399l313 317l315 -317h-231l-84 55l-82 -55 h-231zM778 424q0 -74 52.5 -126t125.5 -52q37 0 69 14t55.5 38t38 56.5t14.5 69.5t-14.5 68.5t-38 55t-55.5 38t-69 14.5t-69.5 -14.5t-56 -38t-38 -55t-14.5 -68.5z" />
<glyph unicode="&#xd5;" horiz-adv-x="1474" d="M47 666q0 141 55.5 267t150.5 220t221 149.5t267 55.5t266.5 -55.5t220.5 -150.5t150.5 -220t55.5 -266q0 -139 -54.5 -265.5t-148.5 -221.5t-220 -150.5t-270 -55.5q-141 0 -268 55.5t-221 149.5t-149.5 220t-55.5 268zM438 1415q0 135 50.5 201.5t138.5 66.5 q29 0 54.5 -8t52 -17.5t53 -16.5t57.5 -7q20 0 33.5 12.5t25.5 53.5l131 -47q0 -41 -8 -84t-28.5 -78t-56.5 -58.5t-91 -23.5q-37 0 -70.5 6t-63.5 14.5t-51.5 14.5t-33.5 6q-20 0 -45 -13.5t-29 -52.5zM778 424q0 -74 52.5 -126t125.5 -52q37 0 69 14t55.5 38t38 56.5 t14.5 69.5t-14.5 68.5t-38 55t-55.5 38t-69 14.5t-69.5 -14.5t-56 -38t-38 -55t-14.5 -68.5z" />
<glyph unicode="&#xd6;" horiz-adv-x="1474" d="M47 666q0 141 55.5 267t150.5 220t221 149.5t267 55.5t266.5 -55.5t220.5 -150.5t150.5 -220t55.5 -266q0 -139 -54.5 -265.5t-148.5 -221.5t-220 -150.5t-270 -55.5q-141 0 -268 55.5t-221 149.5t-149.5 220t-55.5 268zM479 1501q0 47 34 82t81 35t81.5 -35t34.5 -82 t-34.5 -81.5t-81.5 -34.5t-81 34.5t-34 81.5zM762 1501q0 47 34.5 82t81.5 35t82 -35t35 -82t-35 -81.5t-82 -34.5t-81.5 34.5t-34.5 81.5zM778 424q0 -74 52.5 -126t125.5 -52q37 0 69 14t55.5 38t38 56.5t14.5 69.5t-14.5 68.5t-38 55t-55.5 38t-69 14.5t-69.5 -14.5 t-56 -38t-38 -55t-14.5 -68.5z" />
<glyph unicode="&#xd7;" d="M90 424l225 223l-223 223l203 203l221 -223l223 223l203 -203l-223 -223l225 -223l-203 -203l-225 223l-223 -223z" />
<glyph unicode="&#xd8;" horiz-adv-x="1495" d="M59 666q0 141 55.5 267t150.5 220t221 149.5t268 55.5q123 0 232.5 -40t197.5 -112l88 88l110 -110l-88 -88q72 -88 112 -197.5t40 -232.5q0 -139 -54.5 -265.5t-148.5 -221.5t-220 -150.5t-269 -55.5q-123 0 -231.5 40t-200.5 110l-86 -86l-111 110l86 86 q-70 92 -111 201t-41 232zM791 424q0 -74 52 -126t126 -52q37 0 68.5 14t55 38t38 56.5t14.5 69.5t-14.5 68.5t-38 55t-55 38t-68.5 14.5t-70 -14.5t-56.5 -38t-37.5 -55t-14 -68.5z" />
<glyph unicode="&#xd9;" horiz-adv-x="1269" d="M57 549v782h508v-391q0 -57 40 -97t95 -40q57 0 97.5 40t40.5 97v391h374v-782q0 -117 -46 -222.5t-124.5 -183t-184 -124t-222.5 -46.5q-115 0 -219.5 45t-184 124t-127 183.5t-47.5 223.5zM383 1477l141 247l360 -272l-84 -147z" />
<glyph unicode="&#xda;" horiz-adv-x="1269" d="M57 549v782h508v-391q0 -57 40 -97t95 -40q57 0 97.5 40t40.5 97v391h374v-782q0 -117 -46 -222.5t-124.5 -183t-184 -124t-222.5 -46.5q-115 0 -219.5 45t-184 124t-127 183.5t-47.5 223.5zM473 1511l360 272l142 -247l-418 -172z" />
<glyph unicode="&#xdb;" horiz-adv-x="1269" d="M57 549v782h508v-391q0 -57 40 -97t95 -40q57 0 97.5 40t40.5 97v391h374v-782q0 -117 -46 -222.5t-124.5 -183t-184 -124t-222.5 -46.5q-115 0 -219.5 45t-184 124t-127 183.5t-47.5 223.5zM400 1387l313 317l315 -317h-231l-84 55l-82 -55h-231z" />
<glyph unicode="&#xdc;" horiz-adv-x="1269" d="M57 549v782h508v-391q0 -57 40 -97t95 -40q57 0 97.5 40t40.5 97v391h374v-782q0 -117 -46 -222.5t-124.5 -183t-184 -124t-222.5 -46.5q-115 0 -219.5 45t-184 124t-127 183.5t-47.5 223.5zM444 1482q0 47 34 82t81 35t81.5 -35t34.5 -82t-34.5 -81.5t-81.5 -34.5 t-81 34.5t-34 81.5zM727 1482q0 47 34.5 82t81.5 35t82 -35t35 -82t-35 -81.5t-82 -34.5t-81.5 34.5t-34.5 81.5z" />
<glyph unicode="&#xdd;" horiz-adv-x="1347" d="M8 1192l398 223l268 -448l268 448l397 -223l-811 -1362l-383 252l263 438zM555 1479l360 272l142 -247l-418 -172z" />
<glyph unicode="&#xde;" horiz-adv-x="1159" d="M53 0v1331h506v-100q113 -6 212 -55.5t174 -127t118 -180t43 -215.5q0 -115 -43 -216t-118 -180t-174 -127t-212 -54v-76h-506zM543 256q55 10 91 54.5t36 99.5q0 57 -36 101t-91 54v-309z" />
<glyph unicode="&#xdf;" horiz-adv-x="1423" d="M43 858v178h111q33 86 91 147.5t134 99.5t161 56.5t169 18.5q94 0 184 -27.5t159.5 -81t111.5 -135.5t42 -188v-23q-4 -53 -26.5 -106.5t-57.5 -94.5q39 -49 81 -97t77 -99t56.5 -109.5t21.5 -128.5q0 -84 -33 -141t-84 -92t-114.5 -50.5t-125.5 -15.5q-33 0 -64.5 3 t-64.5 8q-41 68 -85 139t-89 141l62 49q33 27 46 52.5t13 52.5q0 39 -14 76.5t-31.5 75.5t-32 79t-14.5 86q0 41 12.5 75t25.5 66.5t25.5 65.5t12.5 74q0 18 -5 46.5t-16.5 55.5t-30 46.5t-44.5 19.5q-29 0 -46.5 -18.5t-28.5 -45t-15.5 -55.5t-4.5 -49v-1016l-493 -176 v1038h-76z" />
<glyph unicode="&#xe0;" horiz-adv-x="1130" d="M51 387q0 78 31 148.5t84 124t123.5 84t148.5 30.5h25v170q47 27 107.5 53.5t127.5 26.5q78 0 147.5 -30.5t122 -83t82 -122t29.5 -145.5v-643h-479v35q-80 -35 -162 -35q-78 0 -148.5 30.5t-123.5 84t-84 124t-31 148.5zM363 1225l141 247l360 -272l-84 -147zM410 311 q0 -39 27.5 -66.5t64.5 -27.5q39 0 66.5 27.5t27.5 66.5q0 37 -27.5 64.5t-66.5 27.5q-37 0 -64.5 -27.5t-27.5 -64.5z" />
<glyph unicode="&#xe1;" horiz-adv-x="1130" d="M51 387q0 78 31 148.5t84 124t123.5 84t148.5 30.5h25v170q47 27 107.5 53.5t127.5 26.5q78 0 147.5 -30.5t122 -83t82 -122t29.5 -145.5v-643h-479v35q-80 -35 -162 -35q-78 0 -148.5 30.5t-123.5 84t-84 124t-31 148.5zM410 311q0 -39 27.5 -66.5t64.5 -27.5 q39 0 66.5 27.5t27.5 66.5q0 37 -27.5 64.5t-66.5 27.5q-37 0 -64.5 -27.5t-27.5 -64.5zM455 1204l360 272l142 -247l-418 -172z" />
<glyph unicode="&#xe2;" horiz-adv-x="1130" d="M51 387q0 78 31 148.5t84 124t123.5 84t148.5 30.5h25v170q47 27 107.5 53.5t127.5 26.5q78 0 147.5 -30.5t122 -83t82 -122t29.5 -145.5v-643h-479v35q-80 -35 -162 -35q-78 0 -148.5 30.5t-123.5 84t-84 124t-31 148.5zM350 1063l313 317l315 -317h-231l-84 55l-82 -55 h-231zM410 311q0 -39 27.5 -66.5t64.5 -27.5q39 0 66.5 27.5t27.5 66.5q0 37 -27.5 64.5t-66.5 27.5q-37 0 -64.5 -27.5t-27.5 -64.5z" />
<glyph unicode="&#xe3;" horiz-adv-x="1130" d="M51 387q0 78 31 148.5t84 124t123.5 84t148.5 30.5h25v170q47 27 107.5 53.5t127.5 26.5q78 0 147.5 -30.5t122 -83t82 -122t29.5 -145.5v-643h-479v35q-80 -35 -162 -35q-78 0 -148.5 30.5t-123.5 84t-84 124t-31 148.5zM346 1083q0 135 50.5 201.5t138.5 66.5 q29 0 54.5 -8t52 -17.5t53 -16.5t57.5 -7q20 0 33.5 12.5t25.5 53.5l131 -47q0 -41 -8 -84t-28.5 -78t-56.5 -58.5t-91 -23.5q-37 0 -70.5 6t-63.5 14.5t-51.5 14.5t-33.5 6q-20 0 -45 -13.5t-29 -52.5zM410 311q0 -39 27.5 -66.5t64.5 -27.5q39 0 66.5 27.5t27.5 66.5 q0 37 -27.5 64.5t-66.5 27.5q-37 0 -64.5 -27.5t-27.5 -64.5z" />
<glyph unicode="&#xe4;" horiz-adv-x="1130" d="M51 387q0 78 31 148.5t84 124t123.5 84t148.5 30.5h25v170q47 27 107.5 53.5t127.5 26.5q78 0 147.5 -30.5t122 -83t82 -122t29.5 -145.5v-643h-479v35q-80 -35 -162 -35q-78 0 -148.5 30.5t-123.5 84t-84 124t-31 148.5zM401 1175q0 47 34 82t81 35t81.5 -35t34.5 -82 t-34.5 -81.5t-81.5 -34.5t-81 34.5t-34 81.5zM410 311q0 -39 27.5 -66.5t64.5 -27.5q39 0 66.5 27.5t27.5 66.5q0 37 -27.5 64.5t-66.5 27.5q-37 0 -64.5 -27.5t-27.5 -64.5zM684 1175q0 47 34.5 82t81.5 35t82 -35t35 -82t-35 -81.5t-82 -34.5t-81.5 34.5t-34.5 81.5z" />
<glyph unicode="&#xe5;" horiz-adv-x="1130" d="M51 387q0 78 31 148.5t84 124t123.5 84t148.5 30.5h25v170q47 27 107.5 53.5t127.5 26.5q78 0 147.5 -30.5t122 -83t82 -122t29.5 -145.5v-643h-479v35q-80 -35 -162 -35q-78 0 -148.5 30.5t-123.5 84t-84 124t-31 148.5zM410 311q0 -39 27.5 -66.5t64.5 -27.5 q39 0 66.5 27.5t27.5 66.5q0 37 -27.5 64.5t-66.5 27.5q-37 0 -64.5 -27.5t-27.5 -64.5zM454 1276q0 43 15.5 80t43 64.5t65.5 44t81 16.5t81 -16.5t65.5 -44t44 -64.5t16.5 -80t-16.5 -79.5t-44 -64.5t-65.5 -44t-81 -16t-81 15t-65.5 43t-43 65.5t-15.5 80.5zM561 1276 q0 -39 29.5 -68.5t68.5 -29.5q41 0 69.5 29.5t28.5 68.5q0 41 -28.5 70t-69.5 29q-39 0 -68.5 -29t-29.5 -70z" />
<glyph unicode="&#xe6;" horiz-adv-x="1732" d="M66 387q0 78 30.5 148.5t83.5 124t124 84t149 30.5h24v170q66 45 125.5 62.5t110.5 17.5q57 0 109 -17.5t98 -45.5q109 63 241 63q102 0 195.5 -39t164 -107.5t111.5 -161t41 -196.5q-2 -45 -10 -88t-23 -84l-14 -41h-452q49 -61 120 -61q18 0 45 4t72 14q4 -12 7 -24.5 t7.5 -31t11.5 -47t19 -73.5q-66 -37 -138.5 -62.5t-156.5 -25.5h-547v35q-80 -35 -161 -35q-78 0 -149 30.5t-124 84t-83.5 124t-30.5 148.5zM424 311q0 -39 27.5 -66.5t64.5 -27.5q39 0 66.5 27.5t27.5 66.5q0 37 -27.5 64.5t-66.5 27.5q-37 0 -64.5 -27.5t-27.5 -64.5z M1171 483h246q-20 31 -53 47.5t-70 16.5q-78 0 -123 -64z" />
<glyph unicode="&#xe7;" horiz-adv-x="802" d="M37 512q0 211 149 360q152 152 363 152q109 0 219 -45v-594q-49 16 -78 16q-53 0 -77.5 -28.5t-24.5 -63.5q0 -37 27.5 -69.5t80.5 -32.5q35 0 72 14v-176q-51 -18 -105.5 -31.5t-113.5 -13.5q-213 0 -363 150t-149 362zM303 -192l142 276h180l-61 -123q37 -49 36 -114 q0 -41 -15 -77t-43 -63.5t-63.5 -44t-76.5 -16.5q-18 0 -38 4t-38 10v43h22q23 0 39.5 16.5t16.5 38.5q0 16 -12.5 32t-28.5 20z" />
<glyph unicode="&#xe8;" horiz-adv-x="1126" d="M51 512q0 104 41 197.5t110.5 163t163 110.5t197.5 41q102 0 195.5 -39t164 -107.5t111.5 -161t41 -196.5q-2 -45 -10 -88t-23 -84l-14 -41h-453q49 -61 121 -61q18 0 43 4t74 14l45 -176q-66 -37 -138.5 -62.5t-156.5 -25.5q-106 0 -199.5 40t-163 109.5t-109.5 163 t-40 199.5zM312 1221l141 247l360 -272l-84 -147zM573 483h246q-20 31 -54 47.5t-69 16.5q-37 0 -69.5 -16.5t-53.5 -47.5z" />
<glyph unicode="&#xe9;" horiz-adv-x="1126" d="M51 512q0 104 41 197.5t110.5 163t163 110.5t197.5 41q102 0 195.5 -39t164 -107.5t111.5 -161t41 -196.5q-2 -45 -10 -88t-23 -84l-14 -41h-453q49 -61 121 -61q18 0 43 4t74 14l45 -176q-66 -37 -138.5 -62.5t-156.5 -25.5q-106 0 -199.5 40t-163 109.5t-109.5 163 t-40 199.5zM312 1196l360 272l142 -247l-418 -172zM573 483h246q-20 31 -54 47.5t-69 16.5q-37 0 -69.5 -16.5t-53.5 -47.5z" />
<glyph unicode="&#xea;" horiz-adv-x="1126" d="M51 512q0 104 41 197.5t110.5 163t163 110.5t197.5 41q102 0 195.5 -39t164 -107.5t111.5 -161t41 -196.5q-2 -45 -10 -88t-23 -84l-14 -41h-453q49 -61 121 -61q18 0 43 4t74 14l45 -176q-66 -37 -138.5 -62.5t-156.5 -25.5q-106 0 -199.5 40t-163 109.5t-109.5 163 t-40 199.5zM248 1047l313 317l315 -317h-231l-84 55l-82 -55h-231zM573 483h246q-20 31 -54 47.5t-69 16.5q-37 0 -69.5 -16.5t-53.5 -47.5z" />
<glyph unicode="&#xeb;" horiz-adv-x="1126" d="M51 512q0 104 41 197.5t110.5 163t163 110.5t197.5 41q102 0 195.5 -39t164 -107.5t111.5 -161t41 -196.5q-2 -45 -10 -88t-23 -84l-14 -41h-453q49 -61 121 -61q18 0 43 4t74 14l45 -176q-66 -37 -138.5 -62.5t-156.5 -25.5q-106 0 -199.5 40t-163 109.5t-109.5 163 t-40 199.5zM305 1163q0 47 34 82t81 35t81.5 -35t34.5 -82t-34.5 -81.5t-81.5 -34.5t-81 34.5t-34 81.5zM573 483h246q-20 31 -54 47.5t-69 16.5q-37 0 -69.5 -16.5t-53.5 -47.5zM588 1163q0 47 34.5 82t81.5 35t82 -35t35 -82t-35 -81.5t-82 -34.5t-81.5 34.5t-34.5 81.5z " />
<glyph unicode="&#xec;" horiz-adv-x="577" d="M41 1221l141 247l360 -272l-84 -147zM51 0v1024h241h238v-1024h-238.5h-240.5z" />
<glyph unicode="&#xed;" horiz-adv-x="577" d="M41 1196l360 272l142 -247l-418 -172zM51 0v1024h241h238v-1024h-238.5h-240.5z" />
<glyph unicode="&#xee;" horiz-adv-x="577" d="M-22 1047l313 317l315 -317h-231l-84 55l-82 -55h-231zM51 0v1024h241h238v-1024h-238.5h-240.5z" />
<glyph unicode="&#xef;" horiz-adv-x="577" d="M33 1163q0 47 34 82t81 35t81.5 -35t34.5 -82t-34.5 -81.5t-81.5 -34.5t-81 34.5t-34 81.5zM51 0v1024h241h238v-1024h-238.5h-240.5zM316 1163q0 47 34.5 82t81.5 35t82 -35t35 -82t-35 -81.5t-82 -34.5t-81.5 34.5t-34.5 81.5z" />
<glyph unicode="&#xf0;" horiz-adv-x="1220" d="M55 469q0 82 29 156.5t79 135t116.5 105.5t140.5 72q-10 10 -18.5 17.5t-14.5 11.5l-160 -84l-57 110l86 45q-20 8 -39.5 15.5t-42.5 13.5q10 70 21.5 137.5t19.5 134.5q55 8 109.5 12.5t105.5 4.5q80 0 158 -13.5t153 -46.5l181 95l59 -109l-113 -59 q154 -111 225.5 -290.5t71.5 -402.5q-6 -113 -49 -214t-115.5 -177t-172 -121t-218.5 -45q-102 0 -201.5 36t-177 100.5t-127 155.5t-49.5 204zM547 588q0 -57 41 -98t98 -41t98 41t41 98t-41 98t-98 41t-98 -41t-41 -98z" />
<glyph unicode="&#xf1;" horiz-adv-x="1021" d="M47 0v1024h502q86 0 164 -35t136 -93t93 -136t35 -164v-596h-315v324q0 29 -19.5 48t-48.5 19q-27 0 -47.5 -19.5t-20.5 -47.5v-324h-479zM213 1067q0 135 50.5 201.5t138.5 66.5q29 0 54.5 -8t52 -17.5t53 -16.5t57.5 -7q20 0 33.5 12.5t25.5 53.5l131 -47q0 -41 -8 -84 t-28.5 -78t-56.5 -58.5t-91 -23.5q-37 0 -70.5 6t-63.5 14.5t-51.5 14.5t-33.5 6q-20 0 -45 -13.5t-29 -52.5z" />
<glyph unicode="&#xf2;" horiz-adv-x="1163" d="M43 512q0 111 43 208t116.5 170t172 116t207.5 43t206 -43t170.5 -117t116.5 -171t43 -206q0 -111 -43 -208t-116.5 -170t-171 -116t-205.5 -43q-109 0 -206 42t-171 115t-118 170t-44 210zM330 1221l141 247l360 -272l-84 -147zM635 342q0 -39 28.5 -67.5t67.5 -28.5 q41 0 68.5 28.5t27.5 67.5q0 41 -27.5 68.5t-68.5 27.5q-39 0 -67.5 -27.5t-28.5 -68.5z" />
<glyph unicode="&#xf3;" horiz-adv-x="1163" d="M43 512q0 111 43 208t116.5 170t172 116t207.5 43t206 -43t170.5 -117t116.5 -171t43 -206q0 -111 -43 -208t-116.5 -170t-171 -116t-205.5 -43q-109 0 -206 42t-171 115t-118 170t-44 210zM330 1196l360 272l142 -247l-418 -172zM635 342q0 -39 28.5 -67.5t67.5 -28.5 q41 0 68.5 28.5t27.5 67.5q0 41 -27.5 68.5t-68.5 27.5q-39 0 -67.5 -27.5t-28.5 -68.5z" />
<glyph unicode="&#xf4;" horiz-adv-x="1163" d="M43 512q0 111 43 208t116.5 170t172 116t207.5 43t206 -43t170.5 -117t116.5 -171t43 -206q0 -111 -43 -208t-116.5 -170t-171 -116t-205.5 -43q-109 0 -206 42t-171 115t-118 170t-44 210zM267 1078l313 317l315 -317h-231l-84 55l-82 -55h-231zM635 342 q0 -39 28.5 -67.5t67.5 -28.5q41 0 68.5 28.5t27.5 67.5q0 41 -27.5 68.5t-68.5 27.5q-39 0 -67.5 -27.5t-28.5 -68.5z" />
<glyph unicode="&#xf5;" horiz-adv-x="1163" d="M43 512q0 111 43 208t116.5 170t172 116t207.5 43t206 -43t170.5 -117t116.5 -171t43 -206q0 -111 -43 -208t-116.5 -170t-171 -116t-205.5 -43q-109 0 -206 42t-171 115t-118 170t-44 210zM282 1092q0 135 50.5 201.5t138.5 66.5q29 0 54.5 -8t52 -17.5t53 -16.5 t57.5 -7q20 0 33.5 12.5t25.5 53.5l131 -47q0 -41 -8 -84t-28.5 -78t-56.5 -58.5t-91 -23.5q-37 0 -70.5 6t-63.5 14.5t-51.5 14.5t-33.5 6q-20 0 -45 -13.5t-29 -52.5zM635 342q0 -39 28.5 -67.5t67.5 -28.5q41 0 68.5 28.5t27.5 67.5q0 41 -27.5 68.5t-68.5 27.5 q-39 0 -67.5 -27.5t-28.5 -68.5z" />
<glyph unicode="&#xf6;" horiz-adv-x="1163" d="M43 512q0 111 43 208t116.5 170t172 116t207.5 43t206 -43t170.5 -117t116.5 -171t43 -206q0 -111 -43 -208t-116.5 -170t-171 -116t-205.5 -43q-109 0 -206 42t-171 115t-118 170t-44 210zM324 1192q0 47 34 82t81 35t81.5 -35t34.5 -82t-34.5 -81.5t-81.5 -34.5 t-81 34.5t-34 81.5zM607 1192q0 47 34.5 82t81.5 35t82 -35t35 -82t-35 -81.5t-82 -34.5t-81.5 34.5t-34.5 81.5zM635 342q0 -39 28.5 -67.5t67.5 -28.5q41 0 68.5 28.5t27.5 67.5q0 41 -27.5 68.5t-68.5 27.5q-39 0 -67.5 -27.5t-28.5 -68.5z" />
<glyph unicode="&#xf7;" d="M57 504v287h920v-287h-920zM387 342q0 53 37 90t90 37t90 -37t37 -90t-37 -90t-90 -37t-90 37t-37 90zM387 958q0 53 37 90t90 37t90 -36.5t37 -90.5q0 -53 -37 -90t-90 -37t-90 37t-37 90z" />
<glyph unicode="&#xf8;" horiz-adv-x="1181" d="M53 512q0 111 43 208t117 170t172 116t207 43q92 0 177 -31t153 -86l79 78l89 -88l-78 -78q53 -70 84.5 -154t31.5 -178q0 -111 -43 -208t-116.5 -170t-171 -116t-205.5 -43q-94 0 -179 31t-153 84l-80 -78l-88 90l78 78q-53 70 -85 154t-32 178zM645 342 q0 -39 28.5 -67.5t67.5 -28.5q41 0 69 28.5t28 67.5q0 41 -28 68.5t-69 27.5q-39 0 -67.5 -27.5t-28.5 -68.5z" />
<glyph unicode="&#xf9;" horiz-adv-x="1021" d="M47 428v596h313v-326q0 -27 20.5 -47t47.5 -20q29 0 48.5 20.5t19.5 46.5v326h481v-1024h-502q-176 0 -303 127q-125 125 -125 301zM261 1221l141 247l360 -272l-84 -147z" />
<glyph unicode="&#xfa;" horiz-adv-x="1021" d="M47 428v596h313v-326q0 -27 20.5 -47t47.5 -20q29 0 48.5 20.5t19.5 46.5v326h481v-1024h-502q-176 0 -303 127q-125 125 -125 301zM260 1196l360 272l142 -247l-418 -172z" />
<glyph unicode="&#xfb;" horiz-adv-x="1021" d="M47 428v596h313v-326q0 -27 20.5 -47t47.5 -20q29 0 48.5 20.5t19.5 46.5v326h481v-1024h-502q-176 0 -303 127q-125 125 -125 301zM197 1065l313 317l315 -317h-231l-84 55l-82 -55h-231z" />
<glyph unicode="&#xfc;" horiz-adv-x="1021" d="M47 428v596h313v-326q0 -27 20.5 -47t47.5 -20q29 0 48.5 20.5t19.5 46.5v326h481v-1024h-502q-176 0 -303 127q-125 125 -125 301zM252 1163q0 47 34 82t81 35t81.5 -35t34.5 -82t-34.5 -81.5t-81.5 -34.5t-81 34.5t-34 81.5zM535 1163q0 47 34.5 82t81.5 35t82 -35 t35 -82t-35 -81.5t-82 -34.5t-81.5 34.5t-34.5 81.5z" />
<glyph unicode="&#xfd;" horiz-adv-x="1116" d="M-41 -256l336 653l-285 627h330l131 -281l143 281h490l-645 -1282zM373 1196l360 272l142 -247l-418 -172z" />
<glyph unicode="&#xfe;" horiz-adv-x="1251" d="M57 -307v1636h480v-330q35 10 71.5 17.5t75.5 7.5q102 0 195.5 -41t163 -111.5t110.5 -163t41 -196.5t-41 -197.5t-110.5 -163t-162 -110.5t-196.5 -41q-39 0 -76 7t-71 16v-330h-480zM537 233q14 -2 19 -2h9q43 0 75 32t32 75t-32 74.5t-75 31.5q-14 -2 -19 -2h-9v-209z " />
<glyph unicode="&#xff;" horiz-adv-x="1116" d="M-41 -256l336 653l-285 627h330l131 -281l143 281h490l-645 -1282zM299 1163q0 47 34 82t81 35t81.5 -35t34.5 -82t-34.5 -81.5t-81.5 -34.5t-81 34.5t-34 81.5zM582 1163q0 47 34.5 82t81.5 35t82 -35t35 -82t-35 -81.5t-82 -34.5t-81.5 34.5t-34.5 81.5z" />
<glyph unicode="&#x152;" horiz-adv-x="2054" d="M66 666q0 141 55 267t150.5 220t221 149.5t267.5 55.5q231 0 407 -135v106h832v-416h-375v-497h375v-416h-832v106q-86 -63 -188 -98t-219 -35q-141 0 -268 55.5t-221.5 149.5t-149.5 220t-55 268zM799 424q0 -37 14 -69.5t37.5 -56.5t55.5 -38t69 -14t68.5 14t55 38 t38 56.5t14.5 69.5t-14.5 68.5t-38 55t-55 38t-68.5 14.5t-69 -14.5t-55.5 -38t-37.5 -55t-14 -68.5zM1698 662q0 53 39 92t92 39q55 0 94 -39t39 -92q0 -55 -39 -94.5t-94 -39.5q-53 0 -92 39t-39 95z" />
<glyph unicode="&#x153;" horiz-adv-x="1914" d="M63 512q0 111 43.5 208t117 170t171 116t205.5 43q117 0 219.5 -47.5t175.5 -127.5q70 70 162 110t197 40q102 0 195 -39t164 -107.5t112 -161t41 -196.5q0 -53 -13.5 -109.5t-33.5 -103.5h-453q49 -61 121 -61q16 0 40.5 4t78.5 14l43 -176q-70 -39 -140.5 -63.5 t-154.5 -24.5q-104 0 -196.5 40t-162.5 110q-74 -80 -176 -127.5t-219 -47.5q-106 0 -203.5 42t-171 115t-118 170t-44.5 210zM653 342q0 -39 30 -67.5t69 -28.5t67.5 28.5t28.5 67.5q0 41 -28.5 68.5t-67.5 27.5t-69 -27.5t-30 -68.5zM1364 483h246q-20 31 -53 47.5 t-70 16.5q-78 0 -123 -64z" />
<glyph unicode="&#x178;" horiz-adv-x="1347" d="M8 1192l398 223l268 -448l268 448l397 -223l-811 -1362l-383 252l263 438zM426 1497q0 47 34 82t81 35t81.5 -35t34.5 -82t-34.5 -81.5t-81.5 -34.5t-81 34.5t-34 81.5zM709 1497q0 47 34.5 82t81.5 35t82 -35t35 -82t-35 -81.5t-82 -34.5t-81.5 34.5t-34.5 81.5z" />
<glyph unicode="&#x2c6;" horiz-adv-x="690" d="M31 1047l313 317l315 -317h-231l-84 55l-82 -55h-231z" />
<glyph unicode="&#x2dc;" horiz-adv-x="690" d="M59 1067q0 135 50.5 201.5t138.5 66.5q29 0 54.5 -8t52 -17.5t53 -16.5t57.5 -7q20 0 33.5 12.5t25.5 53.5l131 -47q0 -41 -8 -84t-28.5 -78t-56.5 -58.5t-91 -23.5q-37 0 -70.5 6t-63.5 14.5t-51.5 14.5t-33.5 6q-20 0 -45 -13.5t-29 -52.5z" />
<glyph unicode="&#x2000;" horiz-adv-x="904" />
<glyph unicode="&#x2001;" horiz-adv-x="1808" />
<glyph unicode="&#x2002;" horiz-adv-x="904" />
<glyph unicode="&#x2003;" horiz-adv-x="1808" />
<glyph unicode="&#x2004;" horiz-adv-x="602" />
<glyph unicode="&#x2005;" horiz-adv-x="452" />
<glyph unicode="&#x2006;" horiz-adv-x="301" />
<glyph unicode="&#x2007;" horiz-adv-x="301" />
<glyph unicode="&#x2008;" horiz-adv-x="226" />
<glyph unicode="&#x2009;" horiz-adv-x="361" />
<glyph unicode="&#x200a;" horiz-adv-x="100" />
<glyph unicode="&#x2010;" horiz-adv-x="512" d="M57 504v287h408v-287h-408z" />
<glyph unicode="&#x2011;" horiz-adv-x="512" d="M57 504v287h408v-287h-408z" />
<glyph unicode="&#x2012;" horiz-adv-x="512" d="M57 504v287h408v-287h-408z" />
<glyph unicode="&#x2013;" d="M57 504v287h920v-287h-920z" />
<glyph unicode="&#x2014;" horiz-adv-x="2048" d="M57 504v287h1944v-287h-1944z" />
<glyph unicode="&#x2018;" horiz-adv-x="397" d="M14 1139l183 307l182 -107l-182 -307z" />
<glyph unicode="&#x2019;" horiz-adv-x="397" d="M14 1139l183 307l182 -107l-182 -307z" />
<glyph unicode="&#x201a;" horiz-adv-x="397" d="M14 -90l183 307l182 -106l-182 -308z" />
<glyph unicode="&#x201c;" horiz-adv-x="686" d="M14 1139l183 307l182 -107l-182 -307zM322 1139l182 307l182 -107l-182 -307z" />
<glyph unicode="&#x201d;" horiz-adv-x="686" d="M14 1139l183 307l182 -107l-182 -307zM322 1139l182 307l182 -107l-182 -307z" />
<glyph unicode="&#x201e;" horiz-adv-x="686" d="M14 -111l183 308l182 -107l-182 -307zM322 -111l182 308l182 -107l-182 -307z" />
<glyph unicode="&#x2022;" horiz-adv-x="866" d="M82 745q0 57 27.5 108.5t77 89.5t114 59.5t137.5 21.5q74 0 138.5 -21.5t113.5 -59.5t77 -89t28 -109q0 -57 -28 -108t-77 -89t-113.5 -59.5t-138.5 -21.5t-138 21.5t-113.5 59.5t-77 89t-27.5 108z" />
<glyph unicode="&#x2026;" horiz-adv-x="1619" d="M160 127q0 37 14 67.5t38 54t54.5 37t65.5 13.5q72 0 122 -50t50 -122q0 -35 -13.5 -65.5t-37 -54t-54 -37t-67.5 -13.5q-70 0 -121 50t-51 120zM651 127q0 37 14.5 67.5t38 54t54 37t65.5 13.5q72 0 122 -50t50 -122q0 -35 -13 -65.5t-36.5 -54t-54.5 -37t-68 -13.5 q-70 0 -121 50t-51 120zM1122 127q0 37 14.5 67.5t38 54t54 37t65.5 13.5q72 0 122 -50t50 -122q0 -35 -13 -65.5t-36.5 -54t-54.5 -37t-68 -13.5q-70 0 -121 50t-51 120z" />
<glyph unicode="&#x202f;" horiz-adv-x="361" />
<glyph unicode="&#x2039;" horiz-adv-x="448" d="M29 575l299 324l84 -90l-144 -234l144 -231l-84 -90z" />
<glyph unicode="&#x203a;" horiz-adv-x="448" d="M27 344l143 231l-143 234l84 90l299 -324l-299 -321z" />
<glyph unicode="&#x205f;" horiz-adv-x="452" />
<glyph unicode="&#x20ac;" horiz-adv-x="1216" d="M55 694l41 125h78q27 111 88.5 203t146.5 159.5t186 104.5t210 37q184 0 377 -94l-144 -350q-39 20 -85 31.5t-93 11.5q-59 0 -110.5 -24t-79.5 -79h362l-41 -125h-370q-2 -6 -3 -28v-16.5t3 -18.5h350l-41 -125h-256q39 -51 88 -73.5t108 -22.5q47 0 100.5 14t106.5 41 v-418q-76 -20 -146.5 -31.5t-139.5 -11.5q-92 0 -189.5 35t-182.5 100.5t-150.5 157.5t-94.5 209h-117l41 125h58v63h-101z" />
<glyph unicode="&#x2122;" horiz-adv-x="874" d="M33 1239v162h303v-162h-76v-270h-151v270h-76zM369 1139q0 86 35.5 149.5t99.5 112.5q33 -29 59.5 -59.5t44.5 -71.5q18 41 44 71.5t59 59.5q61 -51 98 -113.5t37 -148.5q0 -90 -39 -170h-115v80l-84 -80l-84 80v-80h-116q-16 41 -27.5 83t-11.5 87z" />
<glyph unicode="&#xe000;" horiz-adv-x="1095" d="M0 0v1096h1096v-1096h-1096z" />
</font>
</defs>
</svg>
